<svg xmlns="http://www.w3.org/2000/svg" viewBox="0 0 560 80" width="560" height="80">
  <defs>
    <marker id="arr" markerWidth="10" markerHeight="7" refX="10" refY="3.5" orient="auto">
      <polygon points="0 0, 10 3.5, 0 7" fill="#374151"/>
    </marker>
  </defs>

  <!-- Node 1 -->
  <rect x="30" y="22" width="72" height="34" rx="2" fill="#dbeafe" stroke="#2563eb" stroke-width="1.5"/>
  <rect x="102" y="22" width="30" height="34" rx="2" fill="#bfdbfe" stroke="#2563eb" stroke-width="1.5"/>
  <text x="66" y="44" text-anchor="middle" font-size="13" font-family="sans-serif" fill="#1d4ed8">data</text>
  <circle cx="117" cy="39" r="5" fill="#2563eb"/>

  <!-- Node 2 -->
  <rect x="210" y="22" width="72" height="34" rx="2" fill="#dbeafe" stroke="#2563eb" stroke-width="1.5"/>
  <rect x="282" y="22" width="30" height="34" rx="2" fill="#bfdbfe" stroke="#2563eb" stroke-width="1.5"/>
  <text x="246" y="44" text-anchor="middle" font-size="13" font-family="sans-serif" fill="#1d4ed8">data</text>
  <circle cx="297" cy="39" r="5" fill="#2563eb"/>

  <!-- Node 3 -->
  <rect x="390" y="22" width="72" height="34" rx="2" fill="#dbeafe" stroke="#2563eb" stroke-width="1.5"/>
  <rect x="462" y="22" width="30" height="34" rx="2" fill="#bfdbfe" stroke="#2563eb" stroke-width="1.5"/>
  <text x="426" y="44" text-anchor="middle" font-size="13" font-family="sans-serif" fill="#1d4ed8">data</text>
  <circle cx="477" cy="39" r="5" fill="#9ca3af"/>

  <!-- Arrows: Node1 -> Node2 -> Node3 -> null -->
  <line x1="132" y1="39" x2="208" y2="39" stroke="#374151" stroke-width="1.5" marker-end="url(#arr)"/>
  <line x1="312" y1="39" x2="388" y2="39" stroke="#374151" stroke-width="1.5" marker-end="url(#arr)"/>
  <line x1="492" y1="39" x2="535" y2="39" stroke="#374151" stroke-width="1.5" marker-end="url(#arr)"/>

  <!-- null -->
  <text x="537" y="44" text-anchor="start" font-size="13" font-family="sans-serif" fill="#374151">null</text>
</svg>
