<svg xmlns="http://www.w3.org/2000/svg" viewBox="0 0 700 320">
  <!-- Background -->
  <rect width="700" height="320" fill="#f8f9fa"/>
  
  <!-- Title (English only) -->
  <text x="350" y="28" text-anchor="middle" font-family="serif" font-size="15" fill="#333">Computing (AB)<tspan baseline-shift="sub" font-size="11">ij</tspan> = (row i of A) · (column j of B)</text>
  
  <!-- Matrix A -->
  <g transform="translate(40, 55)">
    <!-- Matrix bracket -->
    <path d="M 0 0 L -8 0 L -8 180 L 0 180" stroke="#333" stroke-width="2" fill="none"/>
    <path d="M 100 0 L 108 0 L 108 180 L 100 180" stroke="#333" stroke-width="2" fill="none"/>
    
    <!-- Matrix label -->
    <text x="50" y="-12" text-anchor="middle" font-family="serif" font-size="16" font-style="italic" fill="#1976d2">A</text>
    
    <!-- Matrix cells - 4x3 -->
    <rect x="5" y="5" width="90" height="40" fill="#fff" stroke="#ddd" stroke-width="1"/>
    <rect x="5" y="45" width="90" height="40" fill="#e3f2fd" stroke="#1976d2" stroke-width="2"/>
    <rect x="5" y="85" width="90" height="40" fill="#fff" stroke="#ddd" stroke-width="1"/>
    <rect x="5" y="125" width="90" height="40" fill="#fff" stroke="#ddd" stroke-width="1"/>
    
    <!-- Row indicator -->
    <text x="-25" y="70" text-anchor="middle" font-family="serif" font-size="12" font-style="italic" fill="#1976d2">row i</text>
    
    <!-- Matrix values -->
    <text x="20" y="30" text-anchor="middle" font-family="serif" font-size="11" fill="#999">•</text>
    <text x="50" y="30" text-anchor="middle" font-family="serif" font-size="11" fill="#999">•</text>
    <text x="80" y="30" text-anchor="middle" font-family="serif" font-size="11" fill="#999">•</text>
    
    <text x="20" y="70" text-anchor="middle" font-family="serif" font-size="12" fill="#1976d2" font-weight="bold">a₁</text>
    <text x="50" y="70" text-anchor="middle" font-family="serif" font-size="12" fill="#1976d2" font-weight="bold">a₂</text>
    <text x="80" y="70" text-anchor="middle" font-family="serif" font-size="12" fill="#1976d2" font-weight="bold">a₃</text>
    
    <text x="20" y="110" text-anchor="middle" font-family="serif" font-size="11" fill="#999">•</text>
    <text x="50" y="110" text-anchor="middle" font-family="serif" font-size="11" fill="#999">•</text>
    <text x="80" y="110" text-anchor="middle" font-family="serif" font-size="11" fill="#999">•</text>
    
    <text x="20" y="150" text-anchor="middle" font-family="serif" font-size="11" fill="#999">•</text>
    <text x="50" y="150" text-anchor="middle" font-family="serif" font-size="11" fill="#999">•</text>
    <text x="80" y="150" text-anchor="middle" font-family="serif" font-size="11" fill="#999">•</text>
  </g>
  
  <!-- Multiplication symbol -->
  <text x="175" y="155" text-anchor="middle" font-family="serif" font-size="24" fill="#333">×</text>
  
  <!-- Matrix B -->
  <g transform="translate(200, 55)">
    <!-- Matrix bracket -->
    <path d="M 0 0 L -8 0 L -8 130 L 0 130" stroke="#333" stroke-width="2" fill="none"/>
    <path d="M 140 0 L 148 0 L 148 130 L 140 130" stroke="#333" stroke-width="2" fill="none"/>
    
    <!-- Matrix label -->
    <text x="70" y="-12" text-anchor="middle" font-family="serif" font-size="16" font-style="italic" fill="#e65100">B</text>
    
    <!-- Matrix cells - 3x4 -->
    <rect x="5" y="5" width="30" height="120" fill="#fff" stroke="#ddd" stroke-width="1"/>
    <rect x="40" y="5" width="30" height="120" fill="#fff3e0" stroke="#e65100" stroke-width="2"/>
    <rect x="75" y="5" width="30" height="120" fill="#fff" stroke="#ddd" stroke-width="1"/>
    <rect x="110" y="5" width="25" height="120" fill="#fff" stroke="#ddd" stroke-width="1"/>
    
    <!-- Column indicator (positioned higher to avoid overlap) -->
    <text x="55" y="-12" text-anchor="middle" font-family="serif" font-size="12" font-style="italic" fill="#e65100">col j</text>
    
    <!-- Matrix values -->
    <text x="20" y="45" text-anchor="middle" font-family="serif" font-size="11" fill="#999">•</text>
    <text x="55" y="45" text-anchor="middle" font-family="serif" font-size="12" fill="#e65100" font-weight="bold">b₁</text>
    <text x="90" y="45" text-anchor="middle" font-family="serif" font-size="11" fill="#999">•</text>
    <text x="122" y="45" text-anchor="middle" font-family="serif" font-size="11" fill="#999">•</text>
    
    <text x="20" y="75" text-anchor="middle" font-family="serif" font-size="11" fill="#999">•</text>
    <text x="55" y="75" text-anchor="middle" font-family="serif" font-size="12" fill="#e65100" font-weight="bold">b₂</text>
    <text x="90" y="75" text-anchor="middle" font-family="serif" font-size="11" fill="#999">•</text>
    <text x="122" y="75" text-anchor="middle" font-family="serif" font-size="11" fill="#999">•</text>
    
    <text x="20" y="105" text-anchor="middle" font-family="serif" font-size="11" fill="#999">•</text>
    <text x="55" y="105" text-anchor="middle" font-family="serif" font-size="12" fill="#e65100" font-weight="bold">b₃</text>
    <text x="90" y="105" text-anchor="middle" font-family="serif" font-size="11" fill="#999">•</text>
    <text x="122" y="105" text-anchor="middle" font-family="serif" font-size="11" fill="#999">•</text>
  </g>
  
  <!-- Equals symbol -->
  <text x="385" y="155" text-anchor="middle" font-family="serif" font-size="24" fill="#333">=</text>
  
  <!-- Result Matrix -->
  <g transform="translate(420, 55)">
    <!-- Matrix bracket -->
    <path d="M 0 0 L -8 0 L -8 180 L 0 180" stroke="#333" stroke-width="2" fill="none"/>
    <path d="M 140 0 L 148 0 L 148 180 L 140 180" stroke="#333" stroke-width="2" fill="none"/>
    
    <!-- Matrix label -->
    <text x="70" y="-12" text-anchor="middle" font-family="serif" font-size="16" font-style="italic" fill="#2e7d32">AB</text>
    
    <!-- Matrix cells - 4x4 -->
    <rect x="5" y="5" width="30" height="40" fill="#fff" stroke="#ddd" stroke-width="1"/>
    <rect x="40" y="5" width="30" height="40" fill="#fff" stroke="#ddd" stroke-width="1"/>
    <rect x="75" y="5" width="30" height="40" fill="#fff" stroke="#ddd" stroke-width="1"/>
    <rect x="110" y="5" width="25" height="40" fill="#fff" stroke="#ddd" stroke-width="1"/>
    
    <rect x="5" y="45" width="30" height="40" fill="#fff" stroke="#ddd" stroke-width="1"/>
    <rect x="40" y="45" width="30" height="40" fill="#c8e6c9" stroke="#2e7d32" stroke-width="2"/>
    <rect x="75" y="45" width="30" height="40" fill="#fff" stroke="#ddd" stroke-width="1"/>
    <rect x="110" y="45" width="25" height="40" fill="#fff" stroke="#ddd" stroke-width="1"/>
    
    <rect x="5" y="85" width="30" height="40" fill="#fff" stroke="#ddd" stroke-width="1"/>
    <rect x="40" y="85" width="30" height="40" fill="#fff" stroke="#ddd" stroke-width="1"/>
    <rect x="75" y="85" width="30" height="40" fill="#fff" stroke="#ddd" stroke-width="1"/>
    <rect x="110" y="85" width="25" height="40" fill="#fff" stroke="#ddd" stroke-width="1"/>
    
    <rect x="5" y="125" width="30" height="40" fill="#fff" stroke="#ddd" stroke-width="1"/>
    <rect x="40" y="125" width="30" height="40" fill="#fff" stroke="#ddd" stroke-width="1"/>
    <rect x="75" y="125" width="30" height="40" fill="#fff" stroke="#ddd" stroke-width="1"/>
    <rect x="110" y="125" width="25" height="40" fill="#fff" stroke="#ddd" stroke-width="1"/>
    
    <!-- Highlighted element -->
    <text x="55" y="70" text-anchor="middle" font-family="serif" font-size="11" fill="#2e7d32" font-weight="bold">(AB)ᵢⱼ</text>
    
    <!-- Row/Col indicators -->
    <text x="-20" y="70" text-anchor="middle" font-family="serif" font-size="11" font-style="italic" fill="#666">i</text>
    <text x="55" y="-12" text-anchor="middle" font-family="serif" font-size="11" font-style="italic" fill="#666">j</text>
  </g>
  
  <!-- Calculation formula -->
  <g transform="translate(50, 265)">
    <rect x="0" y="0" width="600" height="40" fill="#fff" stroke="#2e7d32" stroke-width="1" rx="5"/>
    <text x="300" y="26" text-anchor="middle" font-family="serif" font-size="14" fill="#333">
      <tspan fill="#2e7d32" font-weight="bold">(AB)ᵢⱼ</tspan> = 
      <tspan fill="#1976d2">a₁</tspan>·<tspan fill="#e65100">b₁</tspan> + 
      <tspan fill="#1976d2">a₂</tspan>·<tspan fill="#e65100">b₂</tspan> + 
      <tspan fill="#1976d2">a₃</tspan>·<tspan fill="#e65100">b₃</tspan>
      <tspan fill="#333"> = </tspan>
      <tspan fill="#1976d2">row i</tspan>
      <tspan fill="#333"> · </tspan>
      <tspan fill="#e65100">col j</tspan>
    </text>
  </g>
  
  <!-- SMIL Animation for highlighting -->
  <g>
    <!-- Animated highlight for row -->
    <rect x="45" y="100" width="90" height="40" fill="#1976d2" opacity="0">
      <animate attributeName="opacity" values="0;0.2;0" dur="3s" repeatCount="indefinite"/>
    </rect>
    
    <!-- Animated highlight for column -->
    <rect x="240" y="60" width="30" height="120" fill="#e65100" opacity="0">
      <animate attributeName="opacity" values="0;0.2;0" dur="3s" repeatCount="indefinite" begin="0.5s"/>
    </rect>
    
    <!-- Animated highlight for result -->
    <rect x="460" y="100" width="30" height="40" fill="#2e7d32" opacity="0">
      <animate attributeName="opacity" values="0;0.3;0" dur="3s" repeatCount="indefinite" begin="1s"/>
    </rect>
  </g>
</svg>
