<svg xmlns="http://www.w3.org/2000/svg" viewBox="0 0 800 400">
  <defs>
    <linearGradient id="bgGrad2" x1="0%" y1="0%" x2="100%" y2="100%">
      <stop offset="0%" style="stop-color:#1a1a2e;stop-opacity:1" />
      <stop offset="100%" style="stop-color:#16213e;stop-opacity:1" />
    </linearGradient>
    <linearGradient id="implementsGrad" x1="0%" y1="0%" x2="0%" y2="100%">
      <stop offset="0%" style="stop-color:#f093fb;stop-opacity:1" />
      <stop offset="100%" style="stop-color:#f5576c;stop-opacity:1" />
    </linearGradient>
    <linearGradient id="extendsGrad" x1="0%" y1="0%" x2="0%" y2="100%">
      <stop offset="0%" style="stop-color:#4facfe;stop-opacity:1" />
      <stop offset="100%" style="stop-color:#00f2fe;stop-opacity:1" />
    </linearGradient>
  </defs>
  
  <!-- Background -->
  <rect width="800" height="400" fill="url(#bgGrad2)"/>
  
  <!-- LEFT SIDE: implements LoggerService - Blueprint metaphor -->
  <rect x="50" y="50" width="320" height="300" rx="15" fill="#1e2d4a" stroke="url(#implementsGrad)" stroke-width="3"/>
  <text x="210" y="90" text-anchor="middle" fill="#f093fb" font-family="monospace" font-size="14" font-weight="bold">implements LoggerService</text>
  
  <!-- Blueprint/Parts icon -->
  <g transform="translate(100, 120)">
    <!-- Scattered parts -->
    <rect x="0" y="0" width="40" height="25" rx="5" fill="none" stroke="#f093fb" stroke-width="2" stroke-dasharray="5,3"/>
    <rect x="60" y="10" width="30" height="30" rx="3" fill="none" stroke="#f093fb" stroke-width="2" stroke-dasharray="5,3"/>
    <rect x="110" y="0" width="50" height="20" rx="4" fill="none" stroke="#f093fb" stroke-width="2" stroke-dasharray="5,3"/>
    <circle cx="25" cy="70" r="18" fill="none" stroke="#f093fb" stroke-width="2" stroke-dasharray="5,3"/>
    <rect x="70" y="55" width="45" height="35" rx="5" fill="none" stroke="#f093fb" stroke-width="2" stroke-dasharray="5,3"/>
    <polygon points="145,55 165,75 145,95 125,75" fill="none" stroke="#f093fb" stroke-width="2" stroke-dasharray="5,3"/>
  </g>
  
  <!-- Arrow: needs assembly -->
  <text x="210" y="260" text-anchor="middle" fill="#a0aec0" font-family="Arial, sans-serif" font-size="40">🔧</text>
  <text x="210" y="310" text-anchor="middle" fill="#f093fb" font-family="Arial, sans-serif" font-size="13">Build from scratch</text>
  
  <!-- RIGHT SIDE: extends ConsoleLogger - Ready car metaphor -->
  <rect x="430" y="50" width="320" height="300" rx="15" fill="#1e2d4a" stroke="url(#extendsGrad)" stroke-width="3"/>
  <text x="590" y="90" text-anchor="middle" fill="#4facfe" font-family="monospace" font-size="14" font-weight="bold">extends ConsoleLogger</text>
  
  <!-- Ready-made car icon -->
  <g transform="translate(480, 130)">
    <!-- Car body -->
    <path d="M20,60 L30,30 L90,30 L110,60 L130,60 L130,90 L10,90 L10,60 Z" fill="none" stroke="#4facfe" stroke-width="3"/>
    <!-- Wheels -->
    <circle cx="35" cy="90" r="15" fill="#1e2d4a" stroke="#4facfe" stroke-width="3"/>
    <circle cx="105" cy="90" r="15" fill="#1e2d4a" stroke="#4facfe" stroke-width="3"/>
    <!-- Windows -->
    <path d="M35,35 L45,55 L75,55 L75,35 Z" fill="none" stroke="#4facfe" stroke-width="2"/>
    <path d="M80,35 L80,55 L100,55 L90,35 Z" fill="none" stroke="#4facfe" stroke-width="2"/>
    
    <!-- Wrench overlay - modification -->
    <g transform="translate(100, -20)">
      <path d="M40,20 L50,30 L45,35 L55,45 L60,40 L70,50 L65,55 L55,45" fill="none" stroke="#faf089" stroke-width="3" stroke-linecap="round"/>
      <circle cx="72" cy="52" r="8" fill="none" stroke="#faf089" stroke-width="2"/>
    </g>
  </g>
  
  <!-- Arrow: just modify -->
  <text x="590" y="260" text-anchor="middle" fill="#a0aec0" font-family="Arial, sans-serif" font-size="40">🔄</text>
  <text x="590" y="310" text-anchor="middle" fill="#4facfe" font-family="Arial, sans-serif" font-size="13">Override what you need</text>
  
  <!-- VS in center -->
  <text x="400" y="210" text-anchor="middle" fill="#fff" font-family="Arial, sans-serif" font-size="24" font-weight="bold">VS</text>
</svg>
