<svg xmlns="http://www.w3.org/2000/svg" viewBox="0 0 800 500" width="800" height="500">
  <!-- Background -->
  <rect width="800" height="500" fill="#f9fafb"/>
  
  <!-- Excel Window Frame -->
  <rect x="30" y="30" width="540" height="440" fill="#ffffff" stroke="#d1d5db" stroke-width="2" rx="8"/>
  
  <!-- Title Bar -->
  <rect x="30" y="30" width="540" height="35" fill="#217346" rx="8"/>
  <rect x="30" y="50" width="540" height="15" fill="#217346"/>
  <text x="50" y="53" font-family="Arial, sans-serif" font-size="14" fill="#ffffff" font-weight="bold">📊 員工資料.xlsx</text>
  
  <!-- Workbook Label -->
  <rect x="580" y="30" width="190" height="35" fill="#217346" rx="4"/>
  <text x="675" y="53" font-family="Arial, sans-serif" font-size="14" fill="#ffffff" font-weight="bold" text-anchor="middle">Workbook (活頁簿)</text>
  <line x1="570" y1="47" x2="580" y2="47" stroke="#217346" stroke-width="2"/>
  
  <!-- Column Headers -->
  <rect x="70" y="80" width="40" height="30" fill="#f3f4f6" stroke="#d1d5db"/>
  <rect x="110" y="80" width="100" height="30" fill="#e5e7eb" stroke="#d1d5db"/>
  <rect x="210" y="80" width="100" height="30" fill="#e5e7eb" stroke="#d1d5db"/>
  <rect x="310" y="80" width="100" height="30" fill="#e5e7eb" stroke="#d1d5db"/>
  <rect x="410" y="80" width="100" height="30" fill="#e5e7eb" stroke="#d1d5db"/>
  
  <text x="160" y="100" font-family="Arial, sans-serif" font-size="12" fill="#374151" text-anchor="middle" font-weight="bold">A</text>
  <text x="260" y="100" font-family="Arial, sans-serif" font-size="12" fill="#374151" text-anchor="middle" font-weight="bold">B</text>
  <text x="360" y="100" font-family="Arial, sans-serif" font-size="12" fill="#374151" text-anchor="middle" font-weight="bold">C</text>
  <text x="460" y="100" font-family="Arial, sans-serif" font-size="12" fill="#374151" text-anchor="middle" font-weight="bold">D</text>
  
  <!-- Column Label -->
  <rect x="580" y="80" width="190" height="30" fill="#3b82f6" rx="4"/>
  <text x="675" y="100" font-family="Arial, sans-serif" font-size="12" fill="#ffffff" font-weight="bold" text-anchor="middle">Column (欄) - A, B, C...</text>
  <line x1="510" y1="95" x2="580" y2="95" stroke="#3b82f6" stroke-width="2"/>
  
  <!-- Row Headers and Data Rows -->
  <!-- Row 1 -->
  <rect x="70" y="110" width="40" height="30" fill="#e5e7eb" stroke="#d1d5db"/>
  <text x="90" y="130" font-family="Arial, sans-serif" font-size="12" fill="#374151" text-anchor="middle" font-weight="bold">1</text>
  <rect x="110" y="110" width="100" height="30" fill="#dbeafe" stroke="#d1d5db"/>
  <rect x="210" y="110" width="100" height="30" fill="#dbeafe" stroke="#d1d5db"/>
  <rect x="310" y="110" width="100" height="30" fill="#dbeafe" stroke="#d1d5db"/>
  <rect x="410" y="110" width="100" height="30" fill="#dbeafe" stroke="#d1d5db"/>
  <text x="160" y="130" font-family="Arial, sans-serif" font-size="11" fill="#1e40af" text-anchor="middle">員工編號</text>
  <text x="260" y="130" font-family="Arial, sans-serif" font-size="11" fill="#1e40af" text-anchor="middle">姓名</text>
  <text x="360" y="130" font-family="Arial, sans-serif" font-size="11" fill="#1e40af" text-anchor="middle">部門</text>
  <text x="460" y="130" font-family="Arial, sans-serif" font-size="11" fill="#1e40af" text-anchor="middle">薪資</text>
  
  <!-- Row 2 -->
  <rect x="70" y="140" width="40" height="30" fill="#e5e7eb" stroke="#d1d5db"/>
  <text x="90" y="160" font-family="Arial, sans-serif" font-size="12" fill="#374151" text-anchor="middle" font-weight="bold">2</text>
  <rect x="110" y="140" width="100" height="30" fill="#ffffff" stroke="#d1d5db"/>
  <rect x="210" y="140" width="100" height="30" fill="#ffffff" stroke="#d1d5db"/>
  <rect x="310" y="140" width="100" height="30" fill="#ffffff" stroke="#d1d5db"/>
  <rect x="410" y="140" width="100" height="30" fill="#ffffff" stroke="#d1d5db"/>
  <text x="160" y="160" font-family="Arial, sans-serif" font-size="11" fill="#374151" text-anchor="middle">1</text>
  <text x="260" y="160" font-family="Arial, sans-serif" font-size="11" fill="#374151" text-anchor="middle">王小明</text>
  <text x="360" y="160" font-family="Arial, sans-serif" font-size="11" fill="#374151" text-anchor="middle">研發部</text>
  <text x="460" y="160" font-family="Arial, sans-serif" font-size="11" fill="#374151" text-anchor="middle">65,000</text>
  
  <!-- Row 3 -->
  <rect x="70" y="170" width="40" height="30" fill="#e5e7eb" stroke="#d1d5db"/>
  <text x="90" y="190" font-family="Arial, sans-serif" font-size="12" fill="#374151" text-anchor="middle" font-weight="bold">3</text>
  <rect x="110" y="170" width="100" height="30" fill="#ffffff" stroke="#d1d5db"/>
  <rect x="210" y="170" width="100" height="30" fill="#ffffff" stroke="#d1d5db"/>
  <rect x="310" y="170" width="100" height="30" fill="#ffffff" stroke="#d1d5db"/>
  <rect x="410" y="170" width="100" height="30" fill="#ffffff" stroke="#d1d5db"/>
  <text x="160" y="190" font-family="Arial, sans-serif" font-size="11" fill="#374151" text-anchor="middle">2</text>
  <text x="260" y="190" font-family="Arial, sans-serif" font-size="11" fill="#374151" text-anchor="middle">李小華</text>
  <text x="360" y="190" font-family="Arial, sans-serif" font-size="11" fill="#374151" text-anchor="middle">行銷部</text>
  <text x="460" y="190" font-family="Arial, sans-serif" font-size="11" fill="#374151" text-anchor="middle">55,000</text>
  
  <!-- Row 4 -->
  <rect x="70" y="200" width="40" height="30" fill="#e5e7eb" stroke="#d1d5db"/>
  <text x="90" y="220" font-family="Arial, sans-serif" font-size="12" fill="#374151" text-anchor="middle" font-weight="bold">4</text>
  <rect x="110" y="200" width="100" height="30" fill="#ffffff" stroke="#d1d5db"/>
  <rect x="210" y="200" width="100" height="30" fill="#ffffff" stroke="#d1d5db"/>
  <rect x="310" y="200" width="100" height="30" fill="#ffffff" stroke="#d1d5db"/>
  <rect x="410" y="200" width="100" height="30" fill="#ffffff" stroke="#d1d5db"/>
  
  <!-- Row Label -->
  <rect x="580" y="155" width="190" height="30" fill="#10b981" rx="4"/>
  <text x="675" y="175" font-family="Arial, sans-serif" font-size="12" fill="#ffffff" font-weight="bold" text-anchor="middle">Row (列) - 1, 2, 3...</text>
  <line x1="70" y1="155" x2="70" y2="200" stroke="#10b981" stroke-width="3"/>
  <line x1="70" y1="170" x2="580" y2="170" stroke="#10b981" stroke-width="2" stroke-dasharray="4,2"/>
  
  <!-- Cell Highlight -->
  <rect x="210" y="140" width="100" height="30" fill="none" stroke="#f59e0b" stroke-width="3"/>
  
  <!-- Cell Label -->
  <rect x="580" y="230" width="190" height="50" fill="#f59e0b" rx="4"/>
  <text x="675" y="250" font-family="Arial, sans-serif" font-size="12" fill="#ffffff" font-weight="bold" text-anchor="middle">Cell (儲存格)</text>
  <text x="675" y="268" font-family="Arial, sans-serif" font-size="11" fill="#ffffff" text-anchor="middle">B2 = 列與欄的交叉點</text>
  <line x1="310" y1="155" x2="580" y2="255" stroke="#f59e0b" stroke-width="2"/>
  
  <!-- Worksheet Tabs -->
  <rect x="30" y="430" width="100" height="30" fill="#217346" stroke="#d1d5db"/>
  <text x="80" y="450" font-family="Arial, sans-serif" font-size="11" fill="#ffffff" text-anchor="middle">員工資料</text>
  <rect x="130" y="430" width="80" height="30" fill="#f3f4f6" stroke="#d1d5db"/>
  <text x="170" y="450" font-family="Arial, sans-serif" font-size="11" fill="#6b7280" text-anchor="middle">Sheet2</text>
  <rect x="210" y="430" width="80" height="30" fill="#f3f4f6" stroke="#d1d5db"/>
  <text x="250" y="450" font-family="Arial, sans-serif" font-size="11" fill="#6b7280" text-anchor="middle">Sheet3</text>
  
  <!-- Worksheet Label -->
  <rect x="580" y="310" width="190" height="50" fill="#8b5cf6" rx="4"/>
  <text x="675" y="330" font-family="Arial, sans-serif" font-size="12" fill="#ffffff" font-weight="bold" text-anchor="middle">Worksheet (工作表)</text>
  <text x="675" y="348" font-family="Arial, sans-serif" font-size="11" fill="#ffffff" text-anchor="middle">底部的分頁標籤</text>
  <line x1="130" y1="445" x2="580" y2="335" stroke="#8b5cf6" stroke-width="2"/>
  
  <!-- Legend -->
  <rect x="580" y="390" width="190" height="80" fill="#f3f4f6" stroke="#d1d5db" rx="4"/>
  <text x="590" y="410" font-family="Arial, sans-serif" font-size="12" fill="#374151" font-weight="bold">對應關係：</text>
  <text x="590" y="430" font-family="Arial, sans-serif" font-size="11" fill="#6b7280">• .xlsx 檔案 = Workbook</text>
  <text x="590" y="448" font-family="Arial, sans-serif" font-size="11" fill="#6b7280">• 分頁標籤 = Worksheet</text>
  <text x="590" y="466" font-family="Arial, sans-serif" font-size="11" fill="#6b7280">• A1, B2 = Cell 位址</text>
</svg>
