<svg xmlns="http://www.w3.org/2000/svg" viewBox="0 0 980 595" width="980" height="595">
  <defs>
    <style>
      .label { font-family: Arial, sans-serif; font-size: 22px; fill: #111827; }
      .text { font-family: Arial, sans-serif; font-size: 20px; fill: #111827; }
      .small { font-family: Arial, sans-serif; font-size: 16px; fill: #111827; }
    </style>
  </defs>

  <g transform="translate(55 0)">
    <text x="135" y="42" text-anchor="middle" class="label">free-frame list</text>
    <g class="text" text-anchor="middle">
      <text x="135" y="72">14</text>
      <text x="135" y="100">13</text>
      <text x="135" y="128">18</text>
      <text x="135" y="156">20</text>
      <text x="135" y="184">15</text>
    </g>

    <path d="M55 230 Q115 200 175 230 V390 Q115 420 55 390 Z" fill="#7dd3fc" stroke="#111827" stroke-width="2"/>
    <ellipse cx="115" cy="230" rx="60" ry="22" fill="#e0f2fe" stroke="#111827" stroke-width="2"/>
    <rect x="78" y="265" width="75" height="110" fill="#e5e7eb" stroke="#111827" stroke-width="1.5"/>
    <g class="small" text-anchor="middle">
      <text x="115" y="290">page 0</text>
      <text x="115" y="315">page 1</text>
      <text x="115" y="340">page 2</text>
      <text x="115" y="365">page 3</text>
      <text x="115" y="393">new process</text>
    </g>

    <rect x="315" y="15" width="70" height="435" fill="#bae6fd" stroke="#111827" stroke-width="2"/>
    <g stroke="#111827" stroke-width="1.4">
      <line x1="315" y1="63" x2="385" y2="63"/>
      <line x1="315" y1="111" x2="385" y2="111"/>
      <line x1="315" y1="159" x2="385" y2="159"/>
      <line x1="315" y1="207" x2="385" y2="207"/>
      <line x1="315" y1="255" x2="385" y2="255"/>
      <line x1="315" y1="303" x2="385" y2="303"/>
      <line x1="315" y1="351" x2="385" y2="351"/>
      <line x1="315" y1="399" x2="385" y2="399"/>
    </g>
    <rect x="315" y="63" width="70" height="48" fill="#d1d5db" stroke="#111827" stroke-width="1.4"/>
    <rect x="315" y="111" width="70" height="48" fill="#d1d5db" stroke="#111827" stroke-width="1.4"/>
    <rect x="315" y="159" width="70" height="48" fill="#d1d5db" stroke="#111827" stroke-width="1.4"/>
    <rect x="315" y="303" width="70" height="48" fill="#d1d5db" stroke="#111827" stroke-width="1.4"/>
    <rect x="315" y="399" width="70" height="51" fill="#d1d5db" stroke="#111827" stroke-width="1.4"/>
    <g class="text" text-anchor="end">
      <text x="307" y="91">13</text>
      <text x="307" y="139">14</text>
      <text x="307" y="187">15</text>
      <text x="307" y="235">16</text>
      <text x="307" y="283">17</text>
      <text x="307" y="331">18</text>
      <text x="307" y="379">19</text>
      <text x="307" y="427">20</text>
      <text x="307" y="470">21</text>
    </g>
    <text x="260" y="510" text-anchor="middle" class="label">(a)</text>
  </g>

  <g transform="translate(500 0)">
    <text x="145" y="42" text-anchor="middle" class="label">free-frame list</text>
    <text x="145" y="72" text-anchor="middle" class="text">15</text>

    <path d="M70 230 Q130 200 190 230 V390 Q130 420 70 390 Z" fill="#7dd3fc" stroke="#111827" stroke-width="2"/>
    <ellipse cx="130" cy="230" rx="60" ry="22" fill="#e0f2fe" stroke="#111827" stroke-width="2"/>
    <rect x="93" y="265" width="75" height="110" fill="#e5e7eb" stroke="#111827" stroke-width="1.5"/>
    <g class="small" text-anchor="middle">
      <text x="130" y="290">page 0</text>
      <text x="130" y="315">page 1</text>
      <text x="130" y="340">page 2</text>
      <text x="130" y="365">page 3</text>
      <text x="130" y="393">new process</text>
    </g>

    <g transform="translate(128 445)">
      <rect x="40" y="0" width="36" height="88" fill="#bae6fd" stroke="#111827" stroke-width="2"/>
      <g stroke="#111827" stroke-width="1.2">
        <line x1="40" y1="22" x2="76" y2="22"/>
        <line x1="40" y1="44" x2="76" y2="44"/>
        <line x1="40" y1="66" x2="76" y2="66"/>
      </g>
      <g class="small" text-anchor="end">
        <text x="34" y="17">0</text>
        <text x="34" y="39">1</text>
        <text x="34" y="61">2</text>
        <text x="34" y="83">3</text>
      </g>
      <g class="small" text-anchor="middle">
        <text x="58" y="17">14</text>
        <text x="58" y="39">13</text>
        <text x="58" y="61">18</text>
        <text x="58" y="83">20</text>
      </g>
    </g>
    <text x="155" y="560" text-anchor="middle" class="label">new-process page table</text>

    <rect x="355" y="15" width="70" height="435" fill="#bae6fd" stroke="#111827" stroke-width="2"/>
    <g stroke="#111827" stroke-width="1.4">
      <line x1="355" y1="63" x2="425" y2="63"/>
      <line x1="355" y1="111" x2="425" y2="111"/>
      <line x1="355" y1="159" x2="425" y2="159"/>
      <line x1="355" y1="207" x2="425" y2="207"/>
      <line x1="355" y1="255" x2="425" y2="255"/>
      <line x1="355" y1="303" x2="425" y2="303"/>
      <line x1="355" y1="351" x2="425" y2="351"/>
      <line x1="355" y1="399" x2="425" y2="399"/>
    </g>
    <rect x="355" y="63" width="70" height="48" fill="#d1d5db" stroke="#111827" stroke-width="1.4"/>
    <rect x="355" y="111" width="70" height="48" fill="#d1d5db" stroke="#111827" stroke-width="1.4"/>
    <rect x="355" y="303" width="70" height="48" fill="#d1d5db" stroke="#111827" stroke-width="1.4"/>
    <rect x="355" y="399" width="70" height="51" fill="#d1d5db" stroke="#111827" stroke-width="1.4"/>
    <g class="small" text-anchor="middle">
      <text x="390" y="95">page 1</text>
      <text x="390" y="143">page 0</text>
      <text x="390" y="335">page 2</text>
      <text x="390" y="431">page 3</text>
    </g>
    <g class="text" text-anchor="end">
      <text x="347" y="91">13</text>
      <text x="347" y="139">14</text>
      <text x="347" y="187">15</text>
      <text x="347" y="235">16</text>
      <text x="347" y="283">17</text>
      <text x="347" y="331">18</text>
      <text x="347" y="379">19</text>
      <text x="347" y="427">20</text>
      <text x="347" y="470">21</text>
    </g>
    <text x="245" y="510" text-anchor="middle" class="label">(b)</text>
  </g>
</svg>
