<svg xmlns="http://www.w3.org/2000/svg" viewBox="0 0 1080 560" width="1080" height="560">
  <defs>
    <marker id="arr" markerWidth="10" markerHeight="7" refX="10" refY="3.5" orient="auto">
      <polygon points="0 0, 10 3.5, 0 7" fill="#374151"/>
    </marker>
  </defs>

  <g font-family="Arial, sans-serif" fill="#111827">
    <text x="172" y="78" text-anchor="middle" font-size="23">logical address</text>
    <rect x="125" y="100" width="68" height="40" fill="#d1d5db" stroke="#374151" stroke-width="2"/>
    <rect x="193" y="100" width="68" height="40" fill="#d1d5db" stroke="#374151" stroke-width="2"/>
    <text x="159" y="128" text-anchor="middle" font-size="22">p</text>
    <text x="227" y="128" text-anchor="middle" font-size="22">d</text>

    <ellipse cx="170" cy="265" rx="95" ry="55" fill="#bae6fd" stroke="#374151" stroke-width="2"/>
    <text x="170" y="258" text-anchor="middle" font-size="22">hash</text>
    <text x="170" y="286" text-anchor="middle" font-size="22">function</text>

    <rect x="350" y="160" width="92" height="300" fill="#bae6fd" stroke="#374151" stroke-width="2"/>
    <g stroke="#374151" stroke-width="1.5">
      <line x1="350" y1="210" x2="442" y2="210"/>
      <line x1="350" y1="260" x2="442" y2="260"/>
      <line x1="350" y1="310" x2="442" y2="310"/>
      <line x1="350" y1="360" x2="442" y2="360"/>
      <line x1="350" y1="410" x2="442" y2="410"/>
    </g>
    <rect x="350" y="260" width="92" height="50" fill="#d1d5db" stroke="#374151" stroke-width="1.5"/>
    <text x="396" y="505" text-anchor="middle" font-size="23">hash table</text>

    <rect x="535" y="272" width="45" height="36" fill="#ffffff" stroke="#374151" stroke-width="2"/>
    <rect x="580" y="272" width="45" height="36" fill="#ffffff" stroke="#374151" stroke-width="2"/>
    <rect x="625" y="272" width="45" height="36" fill="#ffffff" stroke="#374151" stroke-width="2"/>
    <text x="558" y="297" text-anchor="middle" font-size="21">q</text>
    <text x="603" y="297" text-anchor="middle" font-size="21">s</text>

    <path d="M650 308 V350 H628 V392 H650 V308" fill="none" stroke="#374151" stroke-width="2"/>
    <rect x="725" y="272" width="45" height="36" fill="#ffffff" stroke="#374151" stroke-width="2"/>
    <rect x="770" y="272" width="45" height="36" fill="#ffffff" stroke="#374151" stroke-width="2"/>
    <rect x="815" y="272" width="45" height="36" fill="#ffffff" stroke="#374151" stroke-width="2"/>
    <text x="748" y="297" text-anchor="middle" font-size="21">p</text>
    <text x="793" y="297" text-anchor="middle" font-size="21">r</text>
    <path d="M840 308 V350 H818 V392 H840 V308" fill="none" stroke="#374151" stroke-width="2"/>
    <text x="895" y="297" font-size="32">...</text>

    <text x="810" y="75" text-anchor="middle" font-size="23">physical</text>
    <text x="810" y="103" text-anchor="middle" font-size="23">address</text>
    <rect x="745" y="120" width="68" height="40" fill="#d1d5db" stroke="#374151" stroke-width="2"/>
    <rect x="813" y="120" width="68" height="40" fill="#d1d5db" stroke="#374151" stroke-width="2"/>
    <text x="779" y="148" text-anchor="middle" font-size="22">r</text>
    <text x="847" y="148" text-anchor="middle" font-size="22">d</text>

    <rect x="950" y="45" width="95" height="315" fill="#bae6fd" stroke="#374151" stroke-width="2"/>
    <text x="998" y="410" text-anchor="middle" font-size="23">physical</text>
    <text x="998" y="438" text-anchor="middle" font-size="23">memory</text>

    <g stroke="#374151" stroke-width="2.5" fill="none" marker-end="url(#arr)">
      <line x1="159" y1="140" x2="159" y2="208"/>
      <line x1="265" y1="265" x2="345" y2="285"/>
      <line x1="442" y1="285" x2="530" y2="290"/>
      <line x1="670" y1="290" x2="720" y2="290"/>
      <path d="M227 100 V40 H847 V115"/>
      <line x1="881" y1="140" x2="945" y2="140"/>
      <line x1="793" y1="272" x2="793" y2="165"/>
    </g>
  </g>
</svg>
