<svg xmlns="http://www.w3.org/2000/svg" viewBox="0 0 900 360" width="900" height="360">
  <defs>
    <marker id="arr" markerWidth="10" markerHeight="7" refX="10" refY="3.5" orient="auto">
      <polygon points="0 0, 10 3.5, 0 7" fill="#374151"/>
    </marker>
  </defs>
  <rect width="900" height="360" fill="#ffffff"/>
  <line x1="100" y1="52" x2="830" y2="52" stroke="#374151" stroke-width="1.3"/>
  <line x1="100" y1="42" x2="100" y2="52" stroke="#374151" stroke-width="1.3"/>
  <line x1="128" y1="42" x2="128" y2="52" stroke="#374151" stroke-width="1.3"/>
  <line x1="156" y1="42" x2="156" y2="52" stroke="#374151" stroke-width="1.3"/>
  <line x1="300" y1="42" x2="300" y2="52" stroke="#374151" stroke-width="1.3"/>
  <line x1="330" y1="42" x2="330" y2="52" stroke="#374151" stroke-width="1.3"/>
  <line x1="510" y1="42" x2="510" y2="52" stroke="#374151" stroke-width="1.3"/>
  <line x1="540" y1="42" x2="540" y2="52" stroke="#374151" stroke-width="1.3"/>
  <line x1="830" y1="42" x2="830" y2="52" stroke="#374151" stroke-width="1.3"/>
  <text x="218" y="34" text-anchor="middle" font-family="Arial, sans-serif" font-size="17" fill="#374151">page directory</text>
  <text x="415" y="34" text-anchor="middle" font-family="Arial, sans-serif" font-size="17" fill="#374151">page table</text>
  <text x="680" y="34" text-anchor="middle" font-family="Arial, sans-serif" font-size="17" fill="#374151">offset</text>
  <text x="100" y="72" text-anchor="middle" font-family="Arial, sans-serif" font-size="14" fill="#374151">31</text>
  <text x="128" y="72" text-anchor="middle" font-family="Arial, sans-serif" font-size="14" fill="#374151">30</text>
  <text x="156" y="72" text-anchor="middle" font-family="Arial, sans-serif" font-size="14" fill="#374151">29</text>
  <text x="300" y="72" text-anchor="middle" font-family="Arial, sans-serif" font-size="14" fill="#374151">21</text>
  <text x="330" y="72" text-anchor="middle" font-family="Arial, sans-serif" font-size="14" fill="#374151">20</text>
  <text x="510" y="72" text-anchor="middle" font-family="Arial, sans-serif" font-size="14" fill="#374151">12</text>
  <text x="540" y="72" text-anchor="middle" font-family="Arial, sans-serif" font-size="14" fill="#374151">11</text>
  <text x="830" y="72" text-anchor="middle" font-family="Arial, sans-serif" font-size="14" fill="#374151">0</text>
  <path d="M 128 52 L 128 104 L 148 104 L 148 132" fill="none" stroke="#374151" stroke-width="2" marker-end="url(#arr)"/>
  <path d="M 228 52 L 228 156 L 335 156" fill="none" stroke="#374151" stroke-width="2" marker-end="url(#arr)"/>
  <path d="M 420 52 L 420 156 L 525 156" fill="none" stroke="#374151" stroke-width="2" marker-end="url(#arr)"/>
  <path d="M 685 52 L 685 174 L 750 174" fill="none" stroke="#374151" stroke-width="2" marker-end="url(#arr)"/>
  <text x="82" y="194" text-anchor="middle" font-family="Arial, sans-serif" font-size="18" fill="#374151">CR3</text>
  <text x="82" y="216" text-anchor="middle" font-family="Arial, sans-serif" font-size="18" fill="#374151">register</text>
  <line x1="102" y1="200" x2="130" y2="200" stroke="#374151" stroke-width="2" marker-end="url(#arr)"/>
  <g>
    <rect x="130" y="132" width="80" height="96" fill="#dbeafe" stroke="#374151" stroke-width="1.4"/>
    <rect x="130" y="156" width="80" height="24" fill="#d1d5db" stroke="#374151" stroke-width="1.1"/>
    <line x1="130" y1="204" x2="210" y2="204" stroke="#374151" stroke-width="1.1"/>
    <text x="170" y="258" text-anchor="middle" font-family="Arial, sans-serif" font-size="18" fill="#374151">page directory</text>
    <text x="170" y="280" text-anchor="middle" font-family="Arial, sans-serif" font-size="18" fill="#374151">pointer table</text>
  </g>
  <g>
    <rect x="335" y="118" width="80" height="110" fill="#dbeafe" stroke="#374151" stroke-width="1.4"/>
    <rect x="335" y="148" width="80" height="26" fill="#d1d5db" stroke="#374151" stroke-width="1.1"/>
    <text x="375" y="258" text-anchor="middle" font-family="Arial, sans-serif" font-size="18" fill="#374151">page</text>
    <text x="375" y="280" text-anchor="middle" font-family="Arial, sans-serif" font-size="18" fill="#374151">directory</text>
  </g>
  <g>
    <rect x="525" y="118" width="80" height="110" fill="#dbeafe" stroke="#374151" stroke-width="1.4"/>
    <rect x="525" y="148" width="80" height="26" fill="#d1d5db" stroke="#374151" stroke-width="1.1"/>
    <text x="565" y="258" text-anchor="middle" font-family="Arial, sans-serif" font-size="18" fill="#374151">page</text>
    <text x="565" y="280" text-anchor="middle" font-family="Arial, sans-serif" font-size="18" fill="#374151">table</text>
  </g>
  <rect x="750" y="132" width="80" height="86" fill="#dbeafe" stroke="#374151" stroke-width="1.4"/>
  <text x="790" y="168" text-anchor="middle" font-family="Arial, sans-serif" font-size="18" fill="#1d4ed8">4-KB</text>
  <text x="790" y="190" text-anchor="middle" font-family="Arial, sans-serif" font-size="18" fill="#1d4ed8">page</text>
  <path d="M 210 168 L 270 168 L 270 206 L 335 206" fill="none" stroke="#374151" stroke-width="2" marker-end="url(#arr)"/>
  <path d="M 415 161 L 470 161 L 470 206 L 525 206" fill="none" stroke="#374151" stroke-width="2" marker-end="url(#arr)"/>
  <path d="M 605 161 L 690 161 L 690 206 L 750 206" fill="none" stroke="#374151" stroke-width="2" marker-end="url(#arr)"/>
</svg>
