<svg xmlns="http://www.w3.org/2000/svg" viewBox="0 0 760 520" width="760" height="520">
  <defs>
    <marker id="arr" markerWidth="10" markerHeight="7" refX="10" refY="3.5" orient="auto">
      <polygon points="0 0, 10 3.5, 0 7" fill="#374151"/>
    </marker>
  </defs>
  <rect width="760" height="520" fill="#ffffff"/>
  <text x="130" y="65" text-anchor="middle" font-family="Arial, sans-serif" font-size="20" fill="#374151">logical address</text>
  <rect x="250" y="38" width="118" height="44" fill="#dbeafe" stroke="#374151" stroke-width="1.5"/>
  <rect x="368" y="38" width="282" height="44" fill="#dbeafe" stroke="#374151" stroke-width="1.5"/>
  <text x="309" y="67" text-anchor="middle" font-family="Arial, sans-serif" font-size="20" fill="#1d4ed8">selector</text>
  <text x="509" y="67" text-anchor="middle" font-family="Arial, sans-serif" font-size="20" fill="#1d4ed8">offset</text>
  <path d="M 309 82 L 309 122 L 205 122 L 205 206 L 250 206" fill="none" stroke="#374151" stroke-width="2.2" marker-end="url(#arr)"/>
  <path d="M 334 82 L 334 138" fill="none" stroke="#374151" stroke-width="2.2" marker-end="url(#arr)"/>
  <path d="M 620 82 L 620 235 L 562 235" fill="none" stroke="#374151" stroke-width="2.2" marker-end="url(#arr)"/>
  <text x="375" y="160" text-anchor="middle" font-family="Arial, sans-serif" font-size="20" fill="#374151">descriptor table</text>
  <rect x="250" y="172" width="214" height="126" fill="#d1d5db" stroke="#374151" stroke-width="1.4"/>
  <line x1="250" y1="218" x2="464" y2="218" stroke="#374151" stroke-width="1.2"/>
  <line x1="250" y1="252" x2="464" y2="252" stroke="#374151" stroke-width="1.2"/>
  <rect x="250" y="218" width="214" height="34" fill="#dbeafe" stroke="#374151" stroke-width="1.2"/>
  <text x="357" y="242" text-anchor="middle" font-family="Arial, sans-serif" font-size="20" fill="#1d4ed8">segment descriptor</text>
  <line x1="464" y1="235" x2="520" y2="235" stroke="#374151" stroke-width="2.2" marker-end="url(#arr)"/>
  <circle cx="545" cy="235" r="17" fill="#dbeafe" stroke="#374151" stroke-width="1.5"/>
  <text x="545" y="242" text-anchor="middle" font-family="Arial, sans-serif" font-size="24" fill="#1f2937">+</text>
  <line x1="545" y1="252" x2="545" y2="332" stroke="#374151" stroke-width="2.2" marker-end="url(#arr)"/>
  <line x1="392" y1="342" x2="650" y2="342" stroke="#374151" stroke-width="1.4"/>
  <text x="521" y="374" text-anchor="middle" font-family="Arial, sans-serif" font-size="22" fill="#374151">32-bit linear address</text>
  <text x="260" y="438" text-anchor="middle" font-family="Arial, sans-serif" font-size="18" fill="#374151">selector</text>
  <rect x="330" y="408" width="240" height="36" fill="#dbeafe" stroke="#374151" stroke-width="1.4"/>
  <line x1="460" y1="408" x2="460" y2="444" stroke="#374151" stroke-width="1.2"/>
  <line x1="500" y1="408" x2="500" y2="444" stroke="#374151" stroke-width="1.2"/>
  <text x="395" y="433" text-anchor="middle" font-family="Arial, sans-serif" font-size="18" font-style="italic" fill="#1d4ed8">s</text>
  <text x="480" y="433" text-anchor="middle" font-family="Arial, sans-serif" font-size="18" font-style="italic" fill="#1d4ed8">g</text>
  <text x="535" y="433" text-anchor="middle" font-family="Arial, sans-serif" font-size="18" font-style="italic" fill="#1d4ed8">p</text>
  <text x="395" y="472" text-anchor="middle" font-family="Arial, sans-serif" font-size="18" fill="#374151">13</text>
  <text x="480" y="472" text-anchor="middle" font-family="Arial, sans-serif" font-size="18" fill="#374151">1</text>
  <text x="535" y="472" text-anchor="middle" font-family="Arial, sans-serif" font-size="18" fill="#374151">2</text>
</svg>
