<svg xmlns="http://www.w3.org/2000/svg" viewBox="0 0 820 560" width="820" height="560">
  <defs>
    <marker id="arr" markerWidth="10" markerHeight="7" refX="10" refY="3.5" orient="auto">
      <polygon points="0 0, 10 3.5, 0 7" fill="#374151"/>
    </marker>
  </defs>
  <rect width="820" height="560" fill="#ffffff"/>
  <text x="420" y="48" text-anchor="middle" font-family="Arial, sans-serif" font-size="18" fill="#374151">(linear address)</text>
  <line x1="150" y1="78" x2="710" y2="78" stroke="#374151" stroke-width="1.3"/>
  <line x1="150" y1="68" x2="150" y2="78" stroke="#374151" stroke-width="1.3"/>
  <line x1="340" y1="68" x2="340" y2="78" stroke="#374151" stroke-width="1.3"/>
  <line x1="515" y1="68" x2="515" y2="78" stroke="#374151" stroke-width="1.3"/>
  <line x1="710" y1="68" x2="710" y2="78" stroke="#374151" stroke-width="1.3"/>
  <text x="242" y="65" text-anchor="middle" font-family="Arial, sans-serif" font-size="17" fill="#374151">page directory</text>
  <text x="426" y="65" text-anchor="middle" font-family="Arial, sans-serif" font-size="17" fill="#374151">page table</text>
  <text x="612" y="65" text-anchor="middle" font-family="Arial, sans-serif" font-size="17" fill="#374151">offset</text>
  <text x="150" y="96" text-anchor="middle" font-family="Arial, sans-serif" font-size="16" fill="#374151">31</text>
  <text x="340" y="96" text-anchor="middle" font-family="Arial, sans-serif" font-size="16" fill="#374151">22</text>
  <text x="358" y="96" text-anchor="middle" font-family="Arial, sans-serif" font-size="16" fill="#374151">21</text>
  <text x="515" y="96" text-anchor="middle" font-family="Arial, sans-serif" font-size="16" fill="#374151">12</text>
  <text x="533" y="96" text-anchor="middle" font-family="Arial, sans-serif" font-size="16" fill="#374151">11</text>
  <text x="710" y="96" text-anchor="middle" font-family="Arial, sans-serif" font-size="16" fill="#374151">0</text>
  <line x1="242" y1="78" x2="242" y2="186" stroke="#374151" stroke-width="2" marker-end="url(#arr)"/>
  <line x1="426" y1="78" x2="426" y2="132" stroke="#374151" stroke-width="2" marker-end="url(#arr)"/>
  <line x1="612" y1="78" x2="612" y2="132" stroke="#374151" stroke-width="2" marker-end="url(#arr)"/>
  <rect x="170" y="190" width="135" height="170" fill="#dbeafe" stroke="#374151" stroke-width="1.4"/>
  <text x="237" y="272" text-anchor="middle" font-family="Arial, sans-serif" font-size="19" fill="#1d4ed8">page</text>
  <text x="237" y="296" text-anchor="middle" font-family="Arial, sans-serif" font-size="19" fill="#1d4ed8">directory</text>
  <rect x="360" y="128" width="135" height="170" fill="#dbeafe" stroke="#374151" stroke-width="1.4"/>
  <text x="427" y="210" text-anchor="middle" font-family="Arial, sans-serif" font-size="19" fill="#1d4ed8">page</text>
  <text x="427" y="234" text-anchor="middle" font-family="Arial, sans-serif" font-size="19" fill="#1d4ed8">table</text>
  <rect x="560" y="128" width="135" height="170" fill="#dbeafe" stroke="#374151" stroke-width="1.4"/>
  <text x="627" y="210" text-anchor="middle" font-family="Arial, sans-serif" font-size="19" fill="#1d4ed8">4-KB</text>
  <text x="627" y="234" text-anchor="middle" font-family="Arial, sans-serif" font-size="19" fill="#1d4ed8">page</text>
  <rect x="560" y="330" width="135" height="170" fill="#dbeafe" stroke="#374151" stroke-width="1.4"/>
  <text x="627" y="412" text-anchor="middle" font-family="Arial, sans-serif" font-size="19" fill="#1d4ed8">4-MB</text>
  <text x="627" y="436" text-anchor="middle" font-family="Arial, sans-serif" font-size="19" fill="#1d4ed8">page</text>
  <text x="112" y="312" text-anchor="middle" font-family="Arial, sans-serif" font-size="18" fill="#374151">CR3</text>
  <text x="112" y="334" text-anchor="middle" font-family="Arial, sans-serif" font-size="18" fill="#374151">register</text>
  <line x1="130" y1="304" x2="170" y2="304" stroke="#374151" stroke-width="2" marker-end="url(#arr)"/>
  <path d="M 305 230 L 320 230 L 320 130 L 360 130" fill="none" stroke="#374151" stroke-width="2" marker-end="url(#arr)"/>
  <line x1="495" y1="213" x2="560" y2="213" stroke="#374151" stroke-width="2" marker-end="url(#arr)"/>
  <line x1="305" y1="334" x2="560" y2="334" stroke="#374151" stroke-width="2" marker-end="url(#arr)"/>
  <line x1="150" y1="525" x2="710" y2="525" stroke="#374151" stroke-width="1.3"/>
  <line x1="150" y1="515" x2="150" y2="525" stroke="#374151" stroke-width="1.3"/>
  <line x1="340" y1="515" x2="340" y2="525" stroke="#374151" stroke-width="1.3"/>
  <line x1="710" y1="515" x2="710" y2="525" stroke="#374151" stroke-width="1.3"/>
  <text x="242" y="512" text-anchor="middle" font-family="Arial, sans-serif" font-size="17" fill="#374151">page directory</text>
  <text x="525" y="500" text-anchor="middle" font-family="Arial, sans-serif" font-size="17" fill="#374151">offset</text>
  <text x="150" y="545" text-anchor="middle" font-family="Arial, sans-serif" font-size="16" fill="#374151">31</text>
  <text x="340" y="545" text-anchor="middle" font-family="Arial, sans-serif" font-size="16" fill="#374151">22</text>
  <text x="358" y="545" text-anchor="middle" font-family="Arial, sans-serif" font-size="16" fill="#374151">21</text>
  <text x="710" y="545" text-anchor="middle" font-family="Arial, sans-serif" font-size="16" fill="#374151">0</text>
  <path d="M 515 525 L 515 510 L 660 510 L 660 500" fill="none" stroke="#374151" stroke-width="2" marker-end="url(#arr)"/>
</svg>
