<svg xmlns="http://www.w3.org/2000/svg" viewBox="0 0 1040 520" width="1040" height="520">
  <defs>
    <marker id="arr" markerWidth="10" markerHeight="7" refX="10" refY="3.5" orient="auto">
      <polygon points="0 0, 10 3.5, 0 7" fill="#374151"/>
    </marker>
  </defs>

  <g font-family="Arial, sans-serif" fill="#111827">
    <rect x="70" y="190" width="120" height="95" fill="#d1d5db" stroke="#374151" stroke-width="2"/>
    <text x="130" y="246" text-anchor="middle" font-size="24">CPU</text>

    <text x="310" y="155" text-anchor="middle" font-size="23">logical</text>
    <text x="310" y="183" text-anchor="middle" font-size="23">address</text>
    <rect x="235" y="205" width="58" height="40" fill="#d1d5db" stroke="#374151" stroke-width="2"/>
    <rect x="293" y="205" width="58" height="40" fill="#d1d5db" stroke="#374151" stroke-width="2"/>
    <rect x="351" y="205" width="58" height="40" fill="#d1d5db" stroke="#374151" stroke-width="2"/>
    <text x="264" y="233" text-anchor="middle" font-size="22">pid</text>
    <text x="322" y="233" text-anchor="middle" font-size="22">p</text>
    <text x="380" y="233" text-anchor="middle" font-size="22">d</text>

    <rect x="520" y="155" width="140" height="280" fill="#bae6fd" stroke="#374151" stroke-width="2"/>
    <g stroke="#374151" stroke-width="1.5">
      <line x1="520" y1="195" x2="660" y2="195"/>
      <line x1="520" y1="235" x2="660" y2="235"/>
      <line x1="520" y1="275" x2="660" y2="275"/>
      <line x1="520" y1="315" x2="660" y2="315"/>
      <line x1="520" y1="355" x2="660" y2="355"/>
      <line x1="520" y1="395" x2="660" y2="395"/>
    </g>
    <rect x="520" y="275" width="70" height="40" fill="#d1d5db" stroke="#374151" stroke-width="1.5"/>
    <rect x="590" y="275" width="70" height="40" fill="#d1d5db" stroke="#374151" stroke-width="1.5"/>
    <text x="555" y="303" text-anchor="middle" font-size="22">pid</text>
    <text x="625" y="303" text-anchor="middle" font-size="22">p</text>
    <text x="590" y="125" text-anchor="middle" font-size="23">inverted</text>
    <text x="590" y="465" text-anchor="middle" font-size="23">page table</text>
    <text x="505" y="335" text-anchor="end" font-size="22">search</text>
    <path d="M690 258 C715 258 715 330 690 330" fill="none" stroke="#374151" stroke-width="2"/>
    <text x="730" y="300" text-anchor="middle" font-size="23">i</text>

    <text x="810" y="150" text-anchor="middle" font-size="23">physical</text>
    <text x="810" y="178" text-anchor="middle" font-size="23">address</text>
    <rect x="750" y="205" width="58" height="40" fill="#d1d5db" stroke="#374151" stroke-width="2"/>
    <rect x="808" y="205" width="58" height="40" fill="#d1d5db" stroke="#374151" stroke-width="2"/>
    <text x="779" y="233" text-anchor="middle" font-size="22">i</text>
    <text x="837" y="233" text-anchor="middle" font-size="22">d</text>

    <rect x="910" y="75" width="95" height="340" fill="#bae6fd" stroke="#374151" stroke-width="2"/>
    <text x="958" y="455" text-anchor="middle" font-size="23">physical</text>
    <text x="958" y="483" text-anchor="middle" font-size="23">memory</text>

    <g stroke="#374151" stroke-width="2.5" fill="none" marker-end="url(#arr)">
      <line x1="190" y1="238" x2="230" y2="225"/>
      <path d="M264 245 V295 H515"/>
      <line x1="322" y1="245" x2="322" y2="295"/>
      <path d="M660 295 H779 V250"/>
      <path d="M380 245 V105 H837 V200"/>
      <line x1="866" y1="225" x2="905" y2="225"/>
      <line x1="779" y1="205" x2="779" y2="182"/>
    </g>
  </g>
</svg>
