<svg xmlns="http://www.w3.org/2000/svg" viewBox="0 0 1040 720" width="1040" height="720">
  <defs>
    <marker id="arr" markerWidth="10" markerHeight="7" refX="10" refY="3.5" orient="auto">
      <polygon points="0 0, 10 3.5, 0 7" fill="#374151"/>
    </marker>
  </defs>

  <g font-family="Arial, sans-serif" fill="#111827">
    <text x="435" y="34" text-anchor="middle" font-size="23">page number</text>
    <text x="635" y="34" text-anchor="middle" font-size="23">page offset</text>
    <rect x="295" y="48" width="480" height="40" fill="#bae6fd" stroke="#374151" stroke-width="2"/>
    <line x1="535" y1="48" x2="535" y2="88" stroke="#374151" stroke-width="1.8"/>
    <text x="415" y="77" text-anchor="middle" font-size="24">p</text>
    <text x="655" y="77" text-anchor="middle" font-size="24">d</text>
  </g>

  <g transform="translate(0 150)" font-family="Arial, sans-serif">
    <rect x="50" y="220" width="120" height="95" fill="#e5e7eb" stroke="#374151" stroke-width="2"/>
    <text x="110" y="275" text-anchor="middle" font-size="22" fill="#374151">CPU</text>

    <text x="285" y="221" text-anchor="middle" font-size="18" fill="#374151">logical address</text>
    <rect x="225" y="250" width="38" height="34" fill="#d1d5db" stroke="#374151" stroke-width="1.5"/>
    <rect x="263" y="250" width="38" height="34" fill="#d1d5db" stroke="#374151" stroke-width="1.5"/>
    <text x="244" y="273" text-anchor="middle" font-size="18" fill="#111827">p</text>
    <text x="282" y="273" text-anchor="middle" font-size="18" fill="#111827">d</text>
    <line x1="170" y1="268" x2="220" y2="268" stroke="#374151" stroke-width="2" marker-end="url(#arr)"/>

    <rect x="392" y="247" width="100" height="245" fill="#ffffff" stroke="#9ca3af" stroke-width="2"/>
    <line x1="392" y1="287" x2="492" y2="287" stroke="#374151" stroke-width="1.5"/>
    <line x1="392" y1="327" x2="492" y2="327" stroke="#374151" stroke-width="1.5"/>
    <rect x="392" y="367" width="100" height="34" fill="#bae6fd" stroke="#374151" stroke-width="1.5"/>
    <line x1="420" y1="273" x2="466" y2="273" stroke="#374151" stroke-width="2"/>
    <line x1="420" y1="314" x2="466" y2="314" stroke="#374151" stroke-width="2"/>
    <line x1="420" y1="353" x2="466" y2="353" stroke="#374151" stroke-width="2"/>
    <line x1="420" y1="431" x2="466" y2="431" stroke="#374151" stroke-width="2"/>
    <line x1="420" y1="462" x2="466" y2="462" stroke="#374151" stroke-width="2"/>
    <text x="442" y="390" text-anchor="middle" font-size="20" fill="#075985">f</text>
    <text x="442" y="526" text-anchor="middle" font-size="20" fill="#374151">page table</text>

    <path d="M244 284 V386 H387" fill="none" stroke="#374151" stroke-width="2.5" marker-end="url(#arr)"/>
    <path d="M376 260 H382 V401 H492" fill="none" stroke="#374151" stroke-width="2.5"/>
    <text x="354" y="333" font-size="22" fill="#374151">p</text>
    <path d="M492 384 H580 V281" fill="none" stroke="#374151" stroke-width="2.5" marker-end="url(#arr)"/>

    <text x="643" y="221" text-anchor="middle" font-size="18" fill="#374151">physical address</text>
    <rect x="610" y="250" width="38" height="34" fill="#d1d5db" stroke="#374151" stroke-width="1.5"/>
    <rect x="648" y="250" width="38" height="34" fill="#d1d5db" stroke="#374151" stroke-width="1.5"/>
    <text x="629" y="273" text-anchor="middle" font-size="18" fill="#111827">f</text>
    <text x="667" y="273" text-anchor="middle" font-size="18" fill="#111827">d</text>
    <path d="M301 267 V228 H668 V245" fill="none" stroke="#374151" stroke-width="2.5" marker-end="url(#arr)"/>

    <rect x="790" y="95" width="150" height="360" fill="#e5e7eb" stroke="#374151" stroke-width="2"/>
    <rect x="790" y="220" width="150" height="125" fill="#bae6fd" stroke="#374151" stroke-width="2"/>
    <text x="865" y="165" text-anchor="middle" font-size="18" fill="#374151">frame e</text>
    <text x="865" y="287" text-anchor="middle" font-size="18" fill="#075985">frame f</text>
    <text x="865" y="408" text-anchor="middle" font-size="18" fill="#374151">frame g</text>
    <text x="954" y="239" font-size="16" fill="#374151">0x000</text>
    <text x="954" y="340" font-size="16" fill="#374151">0xfff</text>
    <text x="865" y="486" text-anchor="middle" font-size="20" fill="#374151">physical memory</text>
    <line x1="686" y1="267" x2="785" y2="282" stroke="#374151" stroke-width="2.5" marker-end="url(#arr)"/>
    <path d="M778 220 H765 V345 H778" fill="none" stroke="#374151" stroke-width="2"/>
    <text x="748" y="290" font-size="20" fill="#374151">d</text>
  </g>
</svg>
