<svg xmlns="http://www.w3.org/2000/svg" viewBox="0 0 1050 620" width="1050" height="620">
  <defs>
    <style>
      .txt { font-family: Arial, sans-serif; font-size: 18px; fill: #374151; }
      .small { font-family: Arial, sans-serif; font-size: 16px; fill: #374151; }
    </style>
  </defs>

  <g transform="translate(70 30)">
    <rect x="0" y="0" width="115" height="250" fill="#bae6fd" stroke="#374151" stroke-width="2"/>
    <g stroke="#374151" stroke-width="1.4">
      <line x1="0" y1="50" x2="115" y2="50"/><line x1="0" y1="100" x2="115" y2="100"/>
      <line x1="0" y1="150" x2="115" y2="150"/><line x1="0" y1="200" x2="115" y2="200"/>
    </g>
    <g class="txt" text-anchor="middle">
      <text x="57" y="32">libc 1</text><text x="57" y="82">libc 2</text>
      <text x="57" y="132">libc 3</text><text x="57" y="182">libc 4</text><text x="57" y="232">...</text>
      <text x="57" y="295">process P1</text>
    </g>
    <rect x="170" y="20" width="42" height="155" fill="#bae6fd" stroke="#374151" stroke-width="2"/>
    <g class="txt" text-anchor="middle">
      <text x="191" y="48">3</text><text x="191" y="88">4</text><text x="191" y="128">6</text><text x="191" y="158">1</text><text x="191" y="188">...</text>
      <text x="191" y="220">page table</text><text x="191" y="244">for P1</text>
    </g>
    <g stroke="#374151" stroke-width="1.2">
      <line x1="170" y1="60" x2="212" y2="60"/><line x1="170" y1="100" x2="212" y2="100"/><line x1="170" y1="140" x2="212" y2="140"/>
    </g>
  </g>

  <g transform="translate(365 190)">
    <rect x="0" y="0" width="120" height="250" fill="#d1d5db" stroke="#374151" stroke-width="2"/>
    <g stroke="#374151" stroke-width="1.4">
      <line x1="0" y1="50" x2="120" y2="50"/><line x1="0" y1="100" x2="120" y2="100"/>
      <line x1="0" y1="150" x2="120" y2="150"/><line x1="0" y1="200" x2="120" y2="200"/>
    </g>
    <g class="txt" text-anchor="middle">
      <text x="60" y="32">libc 1</text><text x="60" y="82">libc 2</text>
      <text x="60" y="132">libc 3</text><text x="60" y="182">libc 4</text><text x="60" y="232">...</text>
      <text x="60" y="285">process P2</text>
    </g>
  </g>

  <g transform="translate(70 365)">
    <rect x="0" y="0" width="115" height="250" fill="#ffffff" stroke="#374151" stroke-width="2"/>
    <g stroke="#374151" stroke-width="1.4">
      <line x1="0" y1="50" x2="115" y2="50"/><line x1="0" y1="100" x2="115" y2="100"/>
      <line x1="0" y1="150" x2="115" y2="150"/><line x1="0" y1="200" x2="115" y2="200"/>
    </g>
    <g class="txt" text-anchor="middle">
      <text x="57" y="32">libc 1</text><text x="57" y="82">libc 2</text>
      <text x="57" y="132">libc 3</text><text x="57" y="182">libc 4</text><text x="57" y="232">...</text>
      <text x="57" y="285">process P3</text>
    </g>
    <rect x="170" y="20" width="42" height="155" fill="#ffffff" stroke="#374151" stroke-width="2"/>
    <g class="txt" text-anchor="middle">
      <text x="191" y="48">3</text><text x="191" y="88">4</text><text x="191" y="128">6</text><text x="191" y="158">1</text><text x="191" y="188">...</text>
      <text x="191" y="220">page table</text><text x="191" y="244">for P3</text>
    </g>
    <g stroke="#374151" stroke-width="1.2">
      <line x1="170" y1="60" x2="212" y2="60"/><line x1="170" y1="100" x2="212" y2="100"/><line x1="170" y1="140" x2="212" y2="140"/>
    </g>
  </g>

  <g transform="translate(575 285)">
    <rect x="0" y="0" width="42" height="155" fill="#d1d5db" stroke="#374151" stroke-width="2"/>
    <g class="txt" text-anchor="middle">
      <text x="21" y="28">3</text><text x="21" y="68">4</text><text x="21" y="108">6</text><text x="21" y="138">1</text><text x="21" y="168">...</text>
      <text x="21" y="205">page table</text><text x="21" y="229">for P2</text>
    </g>
    <g stroke="#374151" stroke-width="1.2">
      <line x1="0" y1="40" x2="42" y2="40"/><line x1="0" y1="80" x2="42" y2="80"/><line x1="0" y1="120" x2="42" y2="120"/>
    </g>
  </g>

  <g transform="translate(780 50)">
    <rect x="0" y="0" width="120" height="500" fill="#ffffff" stroke="#374151" stroke-width="2"/>
    <g stroke="#374151" stroke-width="1.4">
      <line x1="0" y1="50" x2="120" y2="50"/><line x1="0" y1="100" x2="120" y2="100"/>
      <line x1="0" y1="150" x2="120" y2="150"/><line x1="0" y1="200" x2="120" y2="200"/>
      <line x1="0" y1="250" x2="120" y2="250"/><line x1="0" y1="300" x2="120" y2="300"/>
      <line x1="0" y1="350" x2="120" y2="350"/><line x1="0" y1="400" x2="120" y2="400"/>
      <line x1="0" y1="450" x2="120" y2="450"/>
    </g>
    <g class="txt" text-anchor="middle">
      <text x="60" y="82">libc 4</text>
      <text x="60" y="182">libc 1</text>
      <text x="60" y="232">libc 2</text>
      <text x="60" y="332">libc 3</text>
      <text x="60" y="555">physical memory</text>
    </g>
    <g class="txt" text-anchor="end">
      <text x="-12" y="30">0</text><text x="-12" y="80">1</text><text x="-12" y="130">2</text>
      <text x="-12" y="180">3</text><text x="-12" y="230">4</text><text x="-12" y="280">5</text>
      <text x="-12" y="330">6</text><text x="-12" y="380">7</text><text x="-12" y="430">8</text><text x="-12" y="480">9</text>
    </g>
  </g>
</svg>
