<svg xmlns="http://www.w3.org/2000/svg" viewBox="0 0 720 470" width="680" height="444">
  <defs>
    <linearGradient id="disk-fill" x1="0" x2="1" y1="0" y2="0">
      <stop offset="0%" stop-color="#c7eaf3"/>
      <stop offset="50%" stop-color="#e8f7fb"/>
      <stop offset="100%" stop-color="#7dd3e8"/>
    </linearGradient>
  </defs>

  <rect width="720" height="470" fill="#ffffff"/>

  <rect x="92" y="50" width="155" height="355" fill="#cfd2d3" stroke="#111827" stroke-width="1.5"/>
  <rect x="92" y="50" width="155" height="120" fill="#c7eaf3" stroke="#111827" stroke-width="1.5"/>
  <text x="169.5" y="105" text-anchor="middle" font-family="Arial, sans-serif" font-size="20" font-weight="700" fill="#111827">operating</text>
  <text x="169.5" y="130" text-anchor="middle" font-family="Arial, sans-serif" font-size="20" font-weight="700" fill="#111827">system</text>
  <text x="169.5" y="340" text-anchor="middle" font-family="Arial, sans-serif" font-size="21" font-weight="700" fill="#111827">user</text>
  <text x="169.5" y="366" text-anchor="middle" font-family="Arial, sans-serif" font-size="21" font-weight="700" fill="#111827">space</text>
  <text x="169.5" y="432" text-anchor="middle" font-family="Arial, sans-serif" font-size="20" font-weight="700" fill="#111827">main memory</text>

  <path d="M445 76 C445 50 675 50 675 76 L675 330 C675 356 445 356 445 330 Z" fill="url(#disk-fill)" stroke="#111827" stroke-width="1.5"/>
  <ellipse cx="560" cy="76" rx="115" ry="26" fill="#e8f7fb" stroke="#111827" stroke-width="1.5"/>
  <rect x="468" y="125" width="98" height="118" fill="#cfd2d3" stroke="#111827" stroke-width="1.5"/>
  <rect x="575" y="250" width="96" height="115" fill="#cfd2d3" stroke="#111827" stroke-width="1.5"/>
  <text x="517" y="183" text-anchor="middle" font-family="Arial, sans-serif" font-size="16" font-weight="700" fill="#111827">process P1</text>
  <text x="623" y="292" text-anchor="middle" font-family="Arial, sans-serif" font-size="16" font-weight="700" fill="#111827">process P2</text>
  <text x="560" y="382" text-anchor="middle" font-family="Arial, sans-serif" font-size="20" font-weight="700" fill="#111827">backing store</text>

  <line x1="177" y1="225" x2="484" y2="225" stroke="#4b5563" stroke-width="4" stroke-linecap="butt"/>
  <polygon points="492 225, 484 220, 484 230" fill="#4b5563"/>
  <circle cx="292" cy="198" r="17" fill="#c7eaf3" stroke="#111827" stroke-width="1.5"/>
  <text x="292" y="205" text-anchor="middle" font-family="Arial, sans-serif" font-size="18" fill="#111827">1</text>
  <text x="355" y="205" text-anchor="middle" font-family="Arial, sans-serif" font-size="20" font-weight="700" fill="#111827">swap out</text>

  <line x1="596" y1="315" x2="186" y2="315" stroke="#4b5563" stroke-width="4" stroke-linecap="butt"/>
  <polygon points="178 315, 186 310, 186 320" fill="#4b5563"/>
  <circle cx="292" cy="286" r="17" fill="#c7eaf3" stroke="#111827" stroke-width="1.5"/>
  <text x="292" y="293" text-anchor="middle" font-family="Arial, sans-serif" font-size="18" fill="#111827">2</text>
  <text x="350" y="293" text-anchor="middle" font-family="Arial, sans-serif" font-size="20" font-weight="700" fill="#111827">swap in</text>
</svg>
