<svg xmlns="http://www.w3.org/2000/svg" viewBox="0 0 940 570" width="940" height="570">
  <defs>
    <marker id="arr" markerWidth="10" markerHeight="7" refX="10" refY="3.5" orient="auto">
      <polygon points="0 0, 10 3.5, 0 7" fill="#111827"/>
    </marker>
  </defs>

  <g font-family="Arial, sans-serif" fill="#111827">
    <rect x="140" y="120" width="120" height="300" fill="#d1d5db" stroke="#111827" stroke-width="2"/>
    <g stroke="#111827" stroke-width="1.4">
      <line x1="140" y1="170" x2="260" y2="170"/>
      <line x1="140" y1="220" x2="260" y2="220"/>
      <line x1="140" y1="270" x2="260" y2="270"/>
      <line x1="140" y1="320" x2="260" y2="320"/>
      <line x1="140" y1="370" x2="260" y2="370"/>
    </g>
    <g font-size="20" text-anchor="middle">
      <text x="200" y="400">page 0</text>
      <text x="200" y="350">page 1</text>
      <text x="200" y="300">page 2</text>
      <text x="200" y="250">page 3</text>
      <text x="200" y="200">page 4</text>
      <text x="200" y="150">page 5</text>
    </g>
    <g font-size="19" text-anchor="end">
      <text x="120" y="400">00000</text>
      <text x="120" y="150">12,287</text>
      <text x="120" y="200">10,468</text>
    </g>

    <text x="450" y="128" text-anchor="end" font-size="20">frame number</text>
    <text x="610" y="128" text-anchor="start" font-size="20">valid-invalid bit</text>
    <line x1="463" y1="132" x2="480" y2="180" stroke="#111827" stroke-width="1.8" marker-end="url(#arr)"/>
    <line x1="590" y1="132" x2="570" y2="180" stroke="#111827" stroke-width="1.8" marker-end="url(#arr)"/>
    <rect x="480" y="180" width="90" height="280" fill="#bae6fd" stroke="#111827" stroke-width="2"/>
    <line x1="525" y1="180" x2="525" y2="460" stroke="#111827" stroke-width="1.5"/>
    <g stroke="#111827" stroke-width="1.2">
      <line x1="480" y1="215" x2="570" y2="215"/>
      <line x1="480" y1="250" x2="570" y2="250"/>
      <line x1="480" y1="285" x2="570" y2="285"/>
      <line x1="480" y1="320" x2="570" y2="320"/>
      <line x1="480" y1="355" x2="570" y2="355"/>
      <line x1="480" y1="390" x2="570" y2="390"/>
      <line x1="480" y1="425" x2="570" y2="425"/>
    </g>
    <g font-size="19" text-anchor="end">
      <text x="470" y="204">0</text><text x="470" y="239">1</text><text x="470" y="274">2</text>
      <text x="470" y="309">3</text><text x="470" y="344">4</text><text x="470" y="379">5</text>
      <text x="470" y="414">6</text><text x="470" y="449">7</text>
    </g>
    <g font-size="19" text-anchor="middle">
      <text x="503" y="204">2</text><text x="503" y="239">3</text><text x="503" y="274">4</text>
      <text x="503" y="309">7</text><text x="503" y="344">8</text><text x="503" y="379">9</text>
      <text x="503" y="414">0</text><text x="503" y="449">0</text>
      <text x="548" y="204">v</text><text x="548" y="239">v</text><text x="548" y="274">v</text>
      <text x="548" y="309">v</text><text x="548" y="344">v</text><text x="548" y="379">v</text>
      <text x="548" y="414">i</text><text x="548" y="449">i</text>
    </g>
    <text x="525" y="490" text-anchor="middle" font-size="21">page table</text>

    <rect x="780" y="30" width="115" height="510" fill="#bae6fd" stroke="#111827" stroke-width="2"/>
    <g stroke="#111827" stroke-width="1.4">
      <line x1="780" y1="80" x2="895" y2="80"/>
      <line x1="780" y1="130" x2="895" y2="130"/>
      <line x1="780" y1="180" x2="895" y2="180"/>
      <line x1="780" y1="230" x2="895" y2="230"/>
      <line x1="780" y1="280" x2="895" y2="280"/>
      <line x1="780" y1="330" x2="895" y2="330"/>
      <line x1="780" y1="380" x2="895" y2="380"/>
      <line x1="780" y1="420" x2="895" y2="420"/>
      <line x1="780" y1="470" x2="895" y2="470"/>
    </g>
    <rect x="780" y="130" width="115" height="50" fill="#d1d5db" stroke="#111827" stroke-width="1.4"/>
    <rect x="780" y="180" width="115" height="50" fill="#d1d5db" stroke="#111827" stroke-width="1.4"/>
    <rect x="780" y="230" width="115" height="50" fill="#d1d5db" stroke="#111827" stroke-width="1.4"/>
    <rect x="780" y="330" width="115" height="50" fill="#d1d5db" stroke="#111827" stroke-width="1.4"/>
    <rect x="780" y="380" width="115" height="40" fill="#d1d5db" stroke="#111827" stroke-width="1.4"/>
    <rect x="780" y="420" width="115" height="50" fill="#d1d5db" stroke="#111827" stroke-width="1.4"/>
    <g font-size="20" text-anchor="end">
      <text x="770" y="58">0</text><text x="770" y="108">1</text><text x="770" y="158">2</text>
      <text x="770" y="208">3</text><text x="770" y="258">4</text><text x="770" y="308">5</text>
      <text x="770" y="358">7</text><text x="770" y="408">8</text><text x="770" y="458">9</text>
    </g>
    <g font-size="20" text-anchor="middle">
      <text x="838" y="160">page 0</text>
      <text x="838" y="210">page 1</text>
      <text x="838" y="260">page 2</text>
      <text x="838" y="360">page 3</text>
      <text x="838" y="410">page 4</text>
      <text x="838" y="460">page 5</text>
      <text x="838" y="500">...</text>
      <text x="838" y="525">page n</text>
    </g>
  </g>
</svg>
