<svg xmlns="http://www.w3.org/2000/svg" viewBox="0 0 960 360" width="784" height="294">
  <defs>
    <marker id="arr" markerWidth="10" markerHeight="7" refX="10" refY="3.5" orient="auto">
      <polygon points="0 0, 10 3.5, 0 7" fill="#374151"/>
    </marker>
  </defs>

  <text x="75" y="105" text-anchor="end" font-family="Arial, sans-serif" font-size="20" fill="#111827">high</text>
  <text x="75" y="130" text-anchor="end" font-family="Arial, sans-serif" font-size="20" fill="#111827">memory</text>
  <text x="75" y="265" text-anchor="end" font-family="Arial, sans-serif" font-size="20" fill="#111827">low</text>
  <text x="75" y="290" text-anchor="end" font-family="Arial, sans-serif" font-size="20" fill="#111827">memory</text>

  <g transform="translate(90,55)">
    <rect x="0" y="0" width="130" height="250" fill="#ffffff" stroke="#374151" stroke-width="1.5"/>
    <rect x="0" y="0" width="130" height="48" fill="#f3f4f6" stroke="#374151" stroke-width="1.5"/>
    <rect x="0" y="48" width="130" height="48" fill="#ffffff" stroke="#374151" stroke-width="1.5"/>
    <rect x="0" y="96" width="130" height="118" fill="#ffffff" stroke="#374151" stroke-width="1.5"/>
    <rect x="0" y="214" width="130" height="36" fill="#ffffff" stroke="#374151" stroke-width="1.5"/>
    <text x="65" y="32" text-anchor="middle" font-family="Arial, sans-serif" font-size="24" fill="#111827">OS</text>
    <text x="65" y="80" text-anchor="middle" font-family="Arial, sans-serif" font-size="22" fill="#111827">process 5</text>
    <text x="65" y="158" text-anchor="middle" font-family="Arial, sans-serif" font-size="22" fill="#111827">process 8</text>
    <text x="65" y="239" text-anchor="middle" font-family="Arial, sans-serif" font-size="22" fill="#111827">process 2</text>
  </g>

  <line x1="240" y1="180" x2="285" y2="180" stroke="#374151" stroke-width="2.5" marker-end="url(#arr)"/>

  <g transform="translate(310,55)">
    <rect x="0" y="0" width="130" height="250" fill="#ffffff" stroke="#374151" stroke-width="1.5"/>
    <rect x="0" y="0" width="130" height="48" fill="#f3f4f6" stroke="#374151" stroke-width="1.5"/>
    <rect x="0" y="48" width="130" height="48" fill="#ffffff" stroke="#374151" stroke-width="1.5"/>
    <rect x="0" y="96" width="130" height="118" fill="#bae6fd" stroke="#374151" stroke-width="1.5"/>
    <rect x="0" y="214" width="130" height="36" fill="#ffffff" stroke="#374151" stroke-width="1.5"/>
    <text x="65" y="32" text-anchor="middle" font-family="Arial, sans-serif" font-size="24" fill="#111827">OS</text>
    <text x="65" y="80" text-anchor="middle" font-family="Arial, sans-serif" font-size="22" fill="#111827">process 5</text>
    <text x="65" y="158" text-anchor="middle" font-family="Arial, sans-serif" font-size="22" fill="#1d4ed8">hole</text>
    <text x="65" y="239" text-anchor="middle" font-family="Arial, sans-serif" font-size="22" fill="#111827">process 2</text>
  </g>

  <line x1="460" y1="180" x2="505" y2="180" stroke="#374151" stroke-width="2.5" marker-end="url(#arr)"/>

  <g transform="translate(530,55)">
    <rect x="0" y="0" width="130" height="250" fill="#ffffff" stroke="#374151" stroke-width="1.5"/>
    <rect x="0" y="0" width="130" height="48" fill="#f3f4f6" stroke="#374151" stroke-width="1.5"/>
    <rect x="0" y="48" width="130" height="48" fill="#ffffff" stroke="#374151" stroke-width="1.5"/>
    <rect x="0" y="96" width="130" height="62" fill="#ffffff" stroke="#374151" stroke-width="1.5"/>
    <rect x="0" y="158" width="130" height="56" fill="#bae6fd" stroke="#374151" stroke-width="1.5"/>
    <rect x="0" y="214" width="130" height="36" fill="#ffffff" stroke="#374151" stroke-width="1.5"/>
    <text x="65" y="32" text-anchor="middle" font-family="Arial, sans-serif" font-size="24" fill="#111827">OS</text>
    <text x="65" y="80" text-anchor="middle" font-family="Arial, sans-serif" font-size="22" fill="#111827">process 5</text>
    <text x="65" y="135" text-anchor="middle" font-family="Arial, sans-serif" font-size="22" fill="#111827">process 9</text>
    <text x="65" y="194" text-anchor="middle" font-family="Arial, sans-serif" font-size="22" fill="#1d4ed8">hole</text>
    <text x="65" y="239" text-anchor="middle" font-family="Arial, sans-serif" font-size="22" fill="#111827">process 2</text>
  </g>

  <line x1="680" y1="180" x2="725" y2="180" stroke="#374151" stroke-width="2.5" marker-end="url(#arr)"/>

  <g transform="translate(750,55)">
    <rect x="0" y="0" width="130" height="250" fill="#ffffff" stroke="#374151" stroke-width="1.5"/>
    <rect x="0" y="0" width="130" height="48" fill="#f3f4f6" stroke="#374151" stroke-width="1.5"/>
    <rect x="0" y="48" width="130" height="48" fill="#bae6fd" stroke="#374151" stroke-width="1.5"/>
    <rect x="0" y="96" width="130" height="62" fill="#ffffff" stroke="#374151" stroke-width="1.5"/>
    <rect x="0" y="158" width="130" height="56" fill="#bae6fd" stroke="#374151" stroke-width="1.5"/>
    <rect x="0" y="214" width="130" height="36" fill="#ffffff" stroke="#374151" stroke-width="1.5"/>
    <text x="65" y="32" text-anchor="middle" font-family="Arial, sans-serif" font-size="24" fill="#111827">OS</text>
    <text x="65" y="80" text-anchor="middle" font-family="Arial, sans-serif" font-size="22" fill="#1d4ed8">hole</text>
    <text x="65" y="135" text-anchor="middle" font-family="Arial, sans-serif" font-size="22" fill="#111827">process 9</text>
    <text x="65" y="194" text-anchor="middle" font-family="Arial, sans-serif" font-size="22" fill="#1d4ed8">hole</text>
    <text x="65" y="239" text-anchor="middle" font-family="Arial, sans-serif" font-size="22" fill="#111827">process 2</text>
  </g>
</svg>
